<?xml version="1.0" standalone="no"?>
<!DOCTYPE svg PUBLIC "-//W3C//DTD SVG 20010904//EN"
 "http://www.w3.org/TR/2001/REC-SVG-20010904/DTD/svg10.dtd">
<svg version="1.0" xmlns="http://www.w3.org/2000/svg"
 width="500.000000pt" height="173.000000pt" viewBox="0 0 500.000000 173.000000"
 preserveAspectRatio="xMidYMid meet">

<g transform="translate(0.000000,173.000000) scale(0.100000,-0.100000)"
fill="#000000" stroke="none">
<path d="M400 1540 c0 -68 1 -70 25 -70 23 0 25 4 25 45 l0 45 75 0 75 0 0
-215 0 -215 -30 0 c-25 0 -30 -4 -30 -25 0 -25 1 -25 90 -25 89 0 90 0 90 25
0 21 -5 25 -30 25 l-30 0 0 215 0 215 75 0 75 0 0 -45 c0 -41 2 -45 25 -45 24
0 25 2 25 70 l0 70 -230 0 -230 0 0 -70z"/>
<path d="M930 1421 c0 -16 6 -21 25 -21 l25 0 0 -114 c0 -63 4 -126 10 -140
13 -35 67 -66 115 -66 40 0 105 31 105 50 0 5 5 10 10 10 6 0 10 -11 10 -24 0
-26 16 -36 61 -36 24 0 29 4 29 25 0 20 -5 25 -25 25 l-25 0 0 155 0 155 -50
0 c-43 0 -50 -3 -50 -20 0 -15 7 -20 25 -20 l25 0 0 -108 c0 -106 -1 -109 -29
-136 -37 -36 -102 -39 -135 -7 -19 19 -22 36 -26 154 l-5 132 -47 3 c-43 3
-48 1 -48 -17z"/>
<path d="M1610 1410 c-66 -12 -94 -25 -140 -66 -49 -45 -75 -121 -67 -195 11
-93 51 -152 193 -287 73 -69 142 -143 155 -165 62 -111 -12 -247 -135 -247
-69 0 -120 18 -167 59 -46 39 -95 130 -105 197 -5 34 -11 43 -30 47 -13 2 -24
3 -24 1 0 -2 -12 -58 -26 -125 -14 -66 -23 -123 -20 -126 10 -10 55 7 83 31
l28 24 52 -48 c89 -82 245 -124 375 -100 145 26 228 114 228 244 0 98 -29 144
-191 304 -181 177 -205 228 -159 329 55 121 210 107 292 -27 22 -36 48 -119
48 -152 0 -18 6 -29 15 -29 8 -1 20 -2 27 -3 10 -1 55 176 57 225 1 29 -26 29
-71 -1 l-42 -29 -47 44 c-25 23 -59 50 -75 58 -63 33 -180 50 -254 37z"/>
<path d="M3680 725 c0 -41 -2 -45 -25 -45 -18 0 -25 -5 -25 -20 0 -14 7 -20
24 -20 l24 0 4 -131 3 -131 33 -29 c35 -32 81 -38 127 -17 28 12 30 19 14 35
-8 8 -20 8 -35 3 -33 -13 -72 4 -84 35 -6 15 -10 73 -10 131 l0 104 55 0 c48
0 55 3 55 19 0 17 -8 20 -52 23 l-53 3 -3 43 c-3 37 -6 42 -28 42 -22 0 -24
-4 -24 -45z"/>
<path d="M2229 680 c-76 -23 -119 -86 -119 -176 0 -111 72 -184 181 -184 75 0
172 61 143 90 -8 8 -21 4 -47 -13 -92 -63 -198 -26 -221 76 l-6 27 140 0 140
0 0 32 c0 17 -10 52 -21 76 -33 66 -111 96 -190 72z m102 -46 c25 -12 59 -64
59 -89 0 -3 -49 -5 -110 -5 -99 0 -110 2 -110 18 0 27 29 63 64 78 41 18 61
17 97 -2z"/>
<path d="M2615 672 c-80 -38 -115 -110 -100 -208 7 -52 53 -110 102 -130 66
-28 171 -7 216 43 15 17 15 22 3 32 -11 9 -22 7 -51 -13 -53 -36 -96 -42 -141
-20 -54 27 -75 61 -76 121 0 91 47 143 131 143 45 0 101 -39 101 -71 0 -14 7
-19 25 -19 24 0 25 2 25 65 0 58 -2 65 -20 65 -13 0 -20 -7 -20 -20 0 -25 -4
-25 -39 1 -40 30 -106 34 -156 11z"/>
<path d="M3349 680 c-76 -23 -119 -86 -119 -176 0 -111 72 -184 181 -184 75 0
172 61 143 90 -8 8 -21 4 -47 -13 -92 -63 -198 -26 -221 76 l-6 27 140 0 140
0 0 32 c0 17 -10 52 -21 76 -33 66 -111 96 -190 72z m102 -46 c25 -12 59 -64
59 -89 0 -3 -49 -5 -110 -5 -99 0 -110 2 -110 18 0 27 29 63 64 78 41 18 61
17 97 -2z"/>
<path d="M4046 680 c-37 -12 -85 -56 -102 -97 -22 -50 -17 -131 9 -177 56
-100 209 -115 289 -30 64 68 66 186 5 253 -47 51 -130 72 -201 51z m143 -66
c56 -47 63 -146 14 -204 -92 -110 -257 -2 -214 140 26 86 133 121 200 64z"/>
<path d="M4434 676 c-99 -43 -77 -156 37 -186 95 -26 119 -40 119 -71 0 -80
-166 -75 -186 6 -4 16 -13 25 -25 25 -17 0 -19 -8 -19 -65 0 -58 2 -65 20 -65
15 0 20 7 20 27 l0 26 24 -22 c45 -42 158 -40 202 4 28 28 32 79 9 111 -16 23
-40 34 -127 59 -73 20 -99 51 -74 90 32 49 122 41 154 -15 9 -16 25 -30 35
-30 14 0 17 9 17 55 0 48 -2 55 -20 55 -11 0 -20 -6 -20 -14 0 -11 -8 -10 -37
5 -43 22 -86 24 -129 5z"/>
<path d="M2910 660 c0 -15 7 -20 25 -20 l25 0 0 -134 c0 -132 0 -135 -22 -138
-15 -2 -23 -10 -23 -23 0 -18 7 -20 75 -20 68 0 75 2 75 20 0 13 -8 21 -22 23
-22 3 -23 8 -23 85 0 64 4 89 20 114 23 38 67 63 110 63 25 0 30 4 30 25 0 21
-5 25 -30 25 -44 0 -86 -24 -115 -67 l-25 -38 0 53 0 52 -50 0 c-43 0 -50 -3
-50 -20z"/>
</g>
</svg>
